/* XPM */
static char *dummy[]={
"16 16 173 2",
"Qt c None",
".C c #000000",
"aA c #000000",
".Q c #111111",
".# c #101010",
"aI c #2e2e2e",
"az c #2f2f2f",
"ab c #212121",
".g c #222222",
".2 c #333333",
"aJ c #323232",
"ak c #3a3a3a",
"aQ c #3a3a3a",
".D c #383838",
".h c #373737",
".3 c #383838",
".a c #3b3b3b",
"#4 c #3e3e3e",
".f c #3f3f3f",
".p c #3e3e3e",
".q c #414141",
"al c #404040",
".P c #3f3f3f",
"aB c #414141",
"#g c #474747",
"aK c #494949",
".B c #474747",
"aa c #4c4c4c",
"#h c #4f4f4f",
".b c #515151",
"as c #494949",
"ar c #494949",
"aP c #4e4e4e",
"aH c #4a4a4a",
"#R c #535353",
".e c #545454",
"ay c #525252",
"#t c #636363",
"#s c #5d5d5d",
".c c #646464",
"#E c #656565",
"aL c #616161",
"#3 c #616161",
".d c #666666",
".i c #646464",
".R c #626262",
"aO c #656565",
".o c #6c6c6c",
"#D c #6d6d6d",
"ac c #6a6a6a",
"#Q c #6f6f6f",
"aM c #737373",
".1 c #727272",
"aN c #757575",
"aC c #777777",
".r c #848484",
"aj c #7f7f7f",
".E c #848484",
"aG c #838383",
"ao c #000000",
"af c #030303",
"#8 c #050505",
"ag c #070707",
"#W c #080808",
"ae c #0e0e0e",
"#0 c #111111",
"#7 c #141414",
"#O c #161616",
"#X c #171717",
"#Y c #181818",
"#I c #1b1b1b",
"#N c #1c1c1c",
".8 c #1e1e1e",
"#k c #1f1f1f",
"#L c #212121",
"#B c #232323",
"#x c #252526",
"ah c #272727",
"#z c #272828",
"ap c #282828",
"#A c #292929",
"#J c #2a2a2a",
"#l c #2a2a2b",
"#K c #2c2c2c",
"#w c #2d2d2d",
"#M c #2e2e2e",
"#j c #2f2f2f",
"av c #303030",
".7 c #313131",
"#o c #323232",
"#y c #333333",
"#Z c #343434",
".6 c #353535",
".U c #373738",
"#n c #393939",
"#m c #3a3a3a",
"#p c #3b3b3b",
"#u c #3d3d3d",
".9 c #3e3e3e",
"#. c #404041",
".V c #414141",
".H c #464646",
"#P c #484848",
"#v c #494949",
".I c #4a4a4a",
".W c #4b4b4b",
".X c #4c4c4c",
".J c #4f4f4f",
".K c #525252",
".Y c #525253",
".L c #535353",
"## c #575758",
"#T c #585858",
"#9 c #5e5e5e",
".Z c #646464",
".v c #666666",
".w c #676767",
".0 c #6e6e6e",
"#a c #707070",
".M c #727272",
".T c #747474",
".G c #757575",
".u c #787878",
".x c #797979",
"#1 c #7a7b7b",
"aw c #7b7b7b",
"ad c #7c7c7c",
"a. c #7f7f7f",
"#G c #858585",
"#b c #888888",
"au c #8c8c8c",
"#6 c #8d8d8d",
"#2 c #929393",
".A c #939393",
"#V c #959595",
".O c #979797",
"am c #989898",
".4 c #9d9d9d",
"#H c #9e9e9e",
".j c #9f9f9f",
"#e c #a6a6a6",
".y c #a7a7a7",
".n c #a8a8a8",
".5 c #ababaa",
".t c #acacac",
"aq c #b0b0b0",
"#q c #b2b2b2",
"#f c #b3b3b3",
"#d c #b9b9b9",
"#c c #c0c0c1",
"a# c #c1c1c1",
"#U c #c2c2c2",
".k c #c5c5c5",
"#i c #c7c7c7",
".m c #c8c8c8",
"#r c #c9c9c9",
"aF c #cacaca",
".l c #cbcbcb",
"#F c #cccccc",
"#S c #cdcdcd",
".N c #cecece",
"an c #d0d0d0",
".s c #d1d1d1",
".S c #d2d2d2",
".z c #d3d3d3",
".F c #d4d4d4",
"ai c #d5d5d5",
"ax c #d7d7d7",
"aE c #dadada",
"aD c #dbdbdb",
"#C c #dcdcdc",
"at c #dddddd",
"#5 c #e5e5e5",
"QtQtQtQt.#.a.b.c.d.e.f.gQtQtQtQt",
"QtQtQt.h.i.j.k.l.l.m.n.o.pQtQtQt",
"QtQt.q.r.s.t.u.v.w.x.y.z.A.B.CQt",
"Qt.D.E.F.G.H.I.J.K.L.K.M.N.O.PQt",
".Q.R.S.T.U.V.W.X.Y.Z.T.0.0.s.1.2",
".3.4.5.6.7.8.9#.###a#b#c#d#e#f#g",
"#h#i.v#j.J#k#l#m.W#n#o#p#q.l#r#s",
"#t.l#u#v.x#w#x#y.7#z#A#B.J#C.z#D",
"#E#F#y#G#H#I#J#K#L#M#N#O#P.l.S#Q",
"#R#S#T#U#V#W#X#Y#J#Z#0.8#1#2#S#3",
"#4.y#d#5#C#6#7#8#M.I.W#9#.a.a#aa",
"abac#5ad.6#maeafae#X#Yagahaiajak",
"Qtalaman#naoaoaoaoaoaoap.kaqarQt",
"Qt.Cas.4atau#n#X#7avawaxaqayazQt",
"QtQtaAaBaCa#aD.SanaEaFaGaHaIQtQt",
"QtQtQtQtaJaKaLaMaNaOaPaQQtQtQtQt"};
