/* XPM */
static char *dummy[]={
"32 32 397 2",
"Qt c None",
"aE c None",
".w c #ffffff",
"dm c #afafaf",
"#T c #afafaf",
"#U c #797979",
".x c #808080",
"dF c #868686",
".6 c #848484",
"e. c #a3a3a3",
"dy c #828282",
"dl c #8b8b8b",
"ek c #9e9e9e",
"cF c #6e6e6e",
".h c #707070",
"#9 c #5c5c5c",
"dR c #6f6f6f",
"#F c #6c6c6c",
"dM c #6e6e6e",
".i c #5f5f5f",
"#n c #636363",
"aW c #585858",
"aD c #6a6a6a",
"e# c #6c6c6c",
".# c #595959",
"d4 c #5e5e5e",
"#8 c #5d5d5d",
"#G c #505050",
".P c #505050",
"ct c #4e4e4e",
".g c #4f4f4f",
"dE c #5f5f5f",
"d3 c #5e5e5e",
"du c #505050",
"d. c #4e4e4e",
".O c #515151",
"bb c #494949",
"#o c #4a4a4a",
".7 c #4a4a4a",
".v c #4b4b4b",
"c9 c #565656",
".a c #4a4a4a",
"ej c #595959",
"ce c #474747",
"ao c #454545",
".f c #484848",
"aV c #4b4b4b",
"ea c #4f4f4f",
"d9 c #505050",
".j c #454545",
"dt c #515151",
"bq c #454545",
"dL c #515151",
"#1 c #444444",
"dX c #535353",
".y c #434343",
"dY c #4a4a4a",
"#0 c #4a4a4a",
".b c #4c4c4c",
"dQ c #4e4e4e",
"b7 c #4f4f4f",
"dz c #444444",
".5 c #454545",
"cR c #474747",
"ei c #494949",
"an c #464646",
"bG c #575757",
".e c #575757",
"cS c #424242",
".u c #424242",
".c c #595959",
"dS c #424242",
"ba c #434343",
"eb c #454545",
"bT c #5b5b5b",
"#S c #414141",
"dG c #414141",
".d c #545454",
"#m c #414141",
"aF c #404040",
".k c #404040",
".N c #404040",
"#V c #3f3f3f",
"dN c #414141",
"#E c #404040",
"cE c #414141",
"eh c #434343",
"d2 c #454545",
"dx c #434343",
"d8 c #434343",
"dk c #424242",
"ec c #404040",
"bp c #3f3f3f",
"cG c #404040",
".z c #414141",
"a. c #414141",
".t c #404040",
".8 c #414141",
"#H c #414141",
"cs c #404040",
"dZ c #3f3f3f",
"d5 c #404040",
"eg c #414141",
"#7 c #3f3f3f",
"aC c #404040",
"aX c #434343",
"bF c #414141",
".l c #434343",
"ed c #414141",
"#p c #434343",
"dW c #404040",
"dD c #3f3f3f",
"cd c #434343",
".4 c #434343",
"dv c #434343",
"bS c #444444",
"ee c #434343",
"b6 c #444444",
"cu c #474747",
"ef c #434343",
"d# c #464646",
".s c #474747",
"dK c #414141",
"c8 c #444444",
"dP c #404040",
".M c #454545",
"bc c #4d4d4d",
"di c #000000",
"ci c #010101",
"cx c #020202",
"dp c #030303",
"do c #040404",
"cZ c #050505",
"cM c #080808",
"de c #080809",
"c0 c #090909",
"at c #0b0b0b",
"cN c #0c0c0c",
"b8 c #0d0d0d",
"c1 c #0e0e0e",
"cy c #0f0f0f",
"c6 c #101011",
"dh c #101111",
"co c #111111",
"aJ c #121212",
"cb c #131313",
"c. c #141414",
"cn c #151515",
"cm c #161616",
"bW c #171717",
"c# c #181818",
"ca c #191919",
"aK c #1a1a1a",
"bH c #1b1b1b",
"a3 c #1c1c1c",
"bi c #1d1d1d",
"bX c #1d1d1e",
"bu c #1e1e1e",
"cA c #1e1e1f",
"bs c #1f1f1f",
"cB c #1f1f20",
"b0 c #202020",
"bY c #212121",
"dg c #212222",
"as c #222222",
"be c #232323",
"bK c #242424",
"cl c #242425",
"bL c #252525",
"bA c #262626",
"bM c #272727",
"bt c #282828",
"bv c #292929",
"bf c #2a2a2a",
"df c #2a2a2b",
"a4 c #2b2b2b",
"bz c #2c2c2c",
"bZ c #2c2c2d",
"a0 c #2d2d2d",
"bh c #2e2e2e",
"bJ c #2f2f2f",
"a1 c #303030",
"bl c #313030",
"ac c #313131",
"aG c #323232",
"bk c #333333",
"ck c #333334",
"bw c #333434",
"aq c #343434",
"by c #343435",
"dd c #353534",
"ab c #353535",
"aH c #363636",
"a6 c #373736",
"a7 c #373737",
"b1 c #373738",
"a5 c #383838",
"cO c #3a3a3a",
"aL c #3b3b3b",
"aa c #3c3c3c",
"bN c #3c3c3d",
"aM c #3d3d3d",
"aN c #3e3e3e",
"a2 c #3f3f3f",
"ar c #3f3f40",
"a8 c #404040",
"bx c #414141",
"au c #424242",
"#X c #434343",
"#K c #444444",
"aI c #444545",
"bj c #454545",
"ad c #464646",
"ds c #474747",
"cC c #484748",
"#v c #484848",
"ae c #494949",
"#L c #4a4a4a",
"cz c #4a4a4b",
"#w c #4b4b4b",
"aO c #4b4b4c",
".m c #4c4c4c",
"#l c #4d4d4d",
"#M c #4e4e4e",
"#x c #4f4f4f",
".Q c #505050",
"#y c #515151",
".A c #525252",
".r c #535353",
"ak c #535354",
"#N c #545454",
"aQ c #545455",
"#z c #555555",
"#A c #565656",
"c2 c #575756",
".n c #575757",
"#O c #585858",
"#B c #595959",
"#u c #5a5a5a",
".q c #5b5b5b",
"#P c #5c5c5c",
".o c #5d5d5d",
"aP c #5e5e5e",
"c3 c #5f5f5f",
"bB c #5f5f60",
"bU c #606060",
".p c #616161",
"#J c #626262",
"af c #636363",
"cT c #646464",
".L c #656565",
"#f c #666666",
"aR c #666667",
".9 c #676767",
"dn c #686868",
".3 c #696969",
"c5 c #696a6a",
"bg c #6a6a6a",
"#e c #6b6b6b",
"c4 c #6d6d6d",
"az c #6d6e6e",
"cP c #6e6e6e",
"ag c #6e6e6f",
"cL c #6f6f6f",
"aj c #6f6f70",
"b9 c #707070",
"dc c #717171",
".B c #757575",
"#q c #767676",
"cD c #777777",
"#g c #787878",
"db c #7a7a7a",
"av c #7b7b7b",
"#Y c #7c7c7c",
"b# c #7d7e7e",
"ch c #7e7e7e",
"dT c #7f7f7f",
"#6 c #808080",
"ah c #808081",
".R c #818181",
"bo c #828282",
"dJ c #838383",
"cK c #838384",
"cQ c #848484",
"ai c #858686",
"#d c #868686",
"d0 c #878787",
"aB c #898989",
"#3 c #8a8a8a",
".K c #8b8b8b",
"d7 c #8c8c8c",
"cr c #8d8d8d",
"dw c #8e8e8e",
"cp c #8f8f8f",
"#k c #909090",
"d6 c #939393",
"aw c #949494",
"#Q c #959595",
"aY c #979797",
"aU c #989898",
".C c #999999",
"#t c #9a9a9a",
"#h c #9b9b9b",
"ap c #9d9d9d",
"a9 c #9d9e9e",
"bR c #9e9e9e",
"dO c #9f9f9f",
"#Z c #a0a0a0",
"da c #a1a1a1",
"b5 c #a2a2a2",
"bI c #a3a3a3",
".2 c #a4a4a4",
"d1 c #a5a5a5",
"dA c #a6a6a6",
"#D c #a7a7a7",
"dr c #a8a8a8",
"cW c #a8a8a9",
"cv c #a9a9a9",
"#2 c #aaaaaa",
".J c #ababab",
"#. c #acacac",
"al c #adadad",
"cw c #afafaf",
"#c c #b0b0b0",
"bn c #b0b1b1",
"bd c #b2b2b2",
".D c #b5b5b5",
".S c #b6b6b6",
"cc c #b8b8b8",
"aZ c #bababa",
"cf c #bcbcbc",
"bE c #bdbdbd",
"#W c #bebebe",
".I c #c0c0c0",
"br c #c2c2c2",
"#r c #c3c3c3",
".E c #c5c5c5",
"bQ c #c5c5c6",
"ax c #c6c6c6",
"#i c #c7c7c7",
"cU c #c8c8c8",
"#I c #c9c9c9",
"b4 c #c9caca",
".H c #cacaca",
"bV c #cbcbcb",
".F c #cccccc",
".1 c #cdcdcd",
"dC c #cecece",
".G c #cfcfcf",
"dI c #d0d0d0",
"dj c #d1d1d1",
"cq c #d2d2d2",
"cI c #d3d3d3",
"bD c #d4d4d4",
"c7 c #d5d5d5",
"b3 c #d5d5d6",
"#5 c #d6d6d6",
"dU c #d7d7d7",
"b2 c #d8d8d9",
".T c #d9d9d9",
"## c #dbdbdb",
"aA c #dcdcdc",
"bP c #dcdcdd",
"#C c #dddddd",
"cH c #dedede",
"#b c #dfdfdf",
"bO c #dfdfe0",
"dq c #e0e0e0",
".Y c #e1e1e1",
"#s c #e2e2e2",
".0 c #e3e3e3",
".X c #e4e4e4",
"a# c #e5e5e5",
"#R c #e6e6e6",
".W c #e7e7e7",
"#j c #e8e8e8",
".U c #e9e9e9",
"#4 c #eaeaea",
"am c #ebebeb",
".Z c #ececec",
"cJ c #ececed",
"ay c #edeced",
".V c #ededed",
"#a c #eeeeee",
"cV c #efefef",
"cg c #f2f2f2",
"dV c #f3f3f3",
"dH c #f4f4f4",
"bC c #f5f5f5",
"cX c #f6f6f6",
"aT c #f7f7f7",
"dB c #f8f8f8",
"cY c #fafafa",
"aS c #fcfcfc",
"b. c #fdfdfd",
"cj c #fefefe",
"bm c #ffffff",
"QtQtQtQtQtQtQtQtQtQtQtQt.#.a.b.c.d.e.f.g.hQtQtQtQtQtQtQtQtQtQtQt",
"QtQtQtQtQtQtQtQtQt.i.j.k.l.m.n.o.p.q.r.s.t.u.v.wQtQtQtQtQtQtQtQt",
"QtQtQtQtQtQtQt.x.y.z.A.B.C.D.E.F.G.H.I.J.K.L.M.N.OQtQtQtQtQtQtQt",
"QtQtQtQtQtQt.P.k.Q.R.S.T.U.V.W.X.Y.X.U.Z.0.1.2.3.4.5.6QtQtQtQtQt",
"QtQtQtQtQt.7.8.9#.###a#b#c#d#e#f.9.3#g#h#i#j#j.F#k#l#m#nQtQtQtQt",
"QtQtQtQt#o#p#q#r.U#s#t#u#v#w#x#y.r#z#A#z#B#g.I.Z#C#D#z#E#FQtQtQt",
"QtQtQt#G#H#q#I#a.H#J#K#L#M#x#y.A#N#A#O#u#P#B#u#Q#R.Y#.#N#S#TQtQt",
"QtQt#U#V.9#r#a#W#x#X#L#w#l#x.Q.A.r#z#A#O#B#u.q#z#Y.X#b#Z#v#0QtQt",
"QtQt#1.Q#2.U.F#M#X#v#L#L.m#l#M.Q#y.A.r.r.r.r#N#O#N#3#4#5#6#7#8Qt",
"Qt#9a..R.Ta##Jaa#Kabacad#vae#L#w.m#zafag#qahaiajak#walam#W.nanQt",
"Qtao.r.D#aapaqaaarasatac#Kau#X#K#v#Javaw#.ax.Xay#iaz#AaA#CaBaCaD",
"aEaF.B#5.0#MaGaHaIacaJaKaLaaaMaNaOaP#faQ#BaRai.EaSaT#YaU.Z.S#laV",
"aWaXaY.WaZa0a1aG#Na2a3aJa4a5aHaM#L#O#La6a5a7aHa8a9b.#jb#a#.G.9ba",
"bbbcbd#a.RbebfaHbg#MbhaKbiaGaGaabj#LaqaGbkaqabbkbl.Sbmbn.1#Cbobp",
"bq#Bbr#a#Jbsas#x#d#PaLbtbubvbwaHbxbybfbza0a0a0bhbAbBbCbDbE.X#QbF",
"bGaP.H.Y#vbibH.RbI.9bJbvbvbKbhaGaHbLbLbMbAbAbMbMbebNbObPbQa#bRbS",
"bTbUbV#baubWbX#WbrajbYbua0a4btacbLbibZbzbsb0bYbYbib1b2b3b4a#b5b6",
"b7#Pax#a#Ob8aH#4aAb9c.c#buaqaGbtc#bH#XbfcaaKbHbHcb.raAcc.S.W#tcd",
"ce#Ncfcgchciafcj.Z.qb8c.cbbAckbWcba0.mclc.cmcncocacpcq.R#I.Ycrcs",
"ctcucv.Zcwcxapbm#4a4cxatcocoaJcyc.a2czcAatb8b8cBafb5aUcC.W#5cDcE",
"cFcGaBcH#saccIbmcJcKcLaNcMcNcNcNcoa8#LcOabaa#lcPcQcDbuavcg.E#ucR",
"QtcScTcUcVcWcXbmbmbmcY#ibfcZc0cMc1#v#xc2c3.9c4c5#wc6cbc7.X.2c8c9",
"Qtd.d#da.YbC#h#qdbdb#qdcddcxcZcZdebfbfbfbzdfdgdhcxdi.Rcgdjdcdkdl",
"Qtdm.Ndn#IcV#2dididididididodpdodpdidididididicidia8.VdqdrdsdtQt",
"QtQtdudvdw.TcXaUdpdicxcxcxcxcxcxcxcxcxcxcicxcidibhaA#jax#JdxdyQt",
"QtQtQtdz#ldAcHdBbIc.dididididididididididididibj#C.ZdCavdDdEQtQt",
"QtQtQtdFdG#z#2aAdHdI#ydodididididididididibHaBcV#jdCdJdKdLQtQtQt",
"QtQtQtQtdMdN.AdOc7amdH#W.3bfcNcidicZcmbxcrcHdHdqaxdbdPdQQtQtQtQt",
"QtQtQtQtQtdRdSaddT#WaA.VcX.ZdU#raZ.1dqdVdVa#cqcv#JdWdXQtQtQtQtQt",
"QtQtQtQtQtQtaEdYdZ#zd0.S.GaA.X.U#4.W.YdUaxd1cLadd2d3QtQtQtQtQtQt",
"QtQtQtQtQtQtQtQtd4cRd5#wcTdTd6apda.Cd7.B#O#Xd8d9e.QtQtQtQtQtQtQt",
"QtQtQtQtQtQtQtQtQtQte#eaebecedeeefcdegeheiejekQtQtQtQtQtQtQtQtQt"};
