/* XPM */
static char *dummy[]={
"64 64 681 2",
"Qt c None",
"#h c None",
"cH c #a6a6a6",
"d1 c #d7d7d7",
"b3 c #dbdbdb",
"b4 c #ffffff",
"da c #cbcbcb",
"dz c #e7e7e7",
"#6 c #ffffff",
"hB c #ececec",
".U c #ffffff",
".i c #e1e1e1",
"hR c #c2c2c2",
"ce c #969696",
"iM c #bbbbbb",
"h7 c #c9c9c9",
"hH c #929292",
"bC c #a3a3a3",
"fG c #8e8e8e",
"iv c #a5a5a5",
"a8 c #aeaeae",
"g8 c #b5b5b5",
".h c #a2a2a2",
"go c #afafaf",
"hL c #7d7d7d",
"ev c #919191",
"hd c #999999",
"ht c #a3a3a3",
"#5 c #959595",
"bs c #9a9a9a",
"cd c #959595",
"ed c #aeaeae",
"bj c #7d7d7d",
".# c #898989",
"hS c #8e8e8e",
"iw c #909090",
"cG c #969696",
".z c #8d8d8d",
"gp c #909090",
"bD c #989898",
"aw c #878787",
".T c #8d8d8d",
"fA c #6d6d6d",
"eF c #777777",
"dP c #8c8c8c",
"h2 c #878787",
"il c #898989",
"gK c #8e8e8e",
"hx c #858585",
"hh c #898989",
"hM c #7f7f7f",
"gJ c #808080",
".g c #989898",
"id c #777777",
"bX c #797979",
"ho c #818181",
"cW c #7a7a7a",
"bt c #717171",
"aR c #757575",
".j c #7c7c7c",
"dy c #787878",
"hC c #7b7b7b",
".A c #767676",
"#I c #777777",
"hI c #7a7a7a",
"iL c #797979",
"g# c #777777",
"bW c #797979",
"#g c #727272",
"h1 c #777777",
"fp c #b8b8b8",
"em c #757575",
".a c #adadad",
"bk c #777777",
"a9 c #757575",
"eQ c #b5b5b5",
"ie c #737373",
"h8 c #6e6e6e",
"g1 c #747474",
"ix c #737373",
"ga c #6f6f6f",
"av c #717171",
".y c #6f6f6f",
"ha c #727272",
"co c #646464",
"iu c #6f6f6f",
"d2 c #696969",
"f0 c #6f6f6f",
"c. c #6d6d6d",
"eu c #6e6e6e",
"#i c #676767",
"hs c #6e6e6e",
".V c #6a6a6a",
"hg c #707070",
"hk c #666666",
".k c #676767",
".f c #adadad",
"g0 c #727272",
"hX c #646464",
".S c #636363",
"im c #686868",
"b9 c #6a6a6a",
"iK c #6c6c6c",
"bO c #636363",
"h# c #6b6b6b",
"gD c #6c6c6c",
"hW c #6a6a6a",
"fe c #a3a3a3",
".b c #a4a4a4",
"cV c #6f6f6f",
"bP c #5d5d5d",
"eY c #9f9f9f",
"gE c #646464",
"h6 c #676767",
"db c #5a5a5a",
"#7 c #5d5d5d",
"dO c #676767",
"cn c #646464",
".e c #909090",
"iy c #656565",
"e7 c #8e8e8e",
"aQ c #616161",
"f1 c #5f5f5f",
".x c #5f5f5f",
".c c #868686",
"fQ c #656565",
".B c #5c5c5c",
"eE c #646464",
"ik c #666666",
"#4 c #5c5c5c",
".d c #797979",
"hw c #646464",
"ic c #606060",
"iJ c #636363",
".l c #595959",
"hp c #585858",
"hQ c #666666",
"bJ c #585858",
"hT c #5a5a5a",
"iz c #5f5f5f",
"h3 c #5a5a5a",
"it c #606060",
"#f c #575757",
"hA c #5f5f5f",
"if c #5c5c5c",
"a7 c #595959",
"fR c #515151",
"he c #565656",
".w c #525252",
"gQ c #535353",
"fF c #6b6b6b",
"en c #4e4e4e",
"#H c #555555",
"hK c #5f5f5f",
"bK c #4f4f4f",
"eP c #6b6b6b",
"ax c #4f4f4f",
"hG c #5c5c5c",
"b5 c #4e4e4e",
"gw c #5c5c5c",
"cI c #4f4f4f",
".m c #505050",
"#J c #4e4e4e",
"h9 c #585858",
".R c #525252",
"bB c #575757",
"d0 c #585858",
"in c #5b5b5b",
"bi c #545454",
"hj c #5f5f5f",
"gP c #5d5d5d",
".W c #4e4e4e",
"gx c #4f4f4f",
"iI c #5e5e5e",
"hu c #505050",
"g9 c #525252",
"br c #515151",
"dA c #4b4b4b",
"hN c #505050",
"iA c #595959",
"d# c #565656",
"b2 c #555555",
"cf c #4c4c4c",
"fz c #6d6d6d",
"h0 c #5c5c5c",
"#j c #4b4b4b",
"fH c #505050",
"eX c #6b6b6b",
"ew c #4f4f4f",
".v c #515151",
".C c #4b4b4b",
"bE c #464646",
"iH c #5a5a5a",
"aS c #464646",
"fo c #626262",
"au c #4d4d4d",
"e6 c #616161",
".n c #4c4c4c",
"hy c #4e4e4e",
"is c #575757",
"g7 c #555555",
"hJ c #4f4f4f",
"eG c #434343",
"ij c #595959",
"hc c #555555",
"fd c #595959",
"iB c #5c5c5c",
".u c #474747",
"hD c #4b4b4b",
"cF c #4d4d4d",
"gn c #515151",
"hY c #4c4c4c",
"cc c #4d4d4d",
"fq c #474747",
"ec c #4c4c4c",
"b. c #454545",
"io c #505050",
"hn c #515151",
"gq c #434343",
".o c #484848",
"hi c #464646",
"#e c #474747",
"ib c #515151",
".Q c #474747",
"h5 c #545454",
"iG c #5e5e5e",
"dQ c #3f3f3f",
"gL c #434343",
"ig c #4f4f4f",
"bl c #424242",
"hV c #515151",
"iC c #5b5b5b",
"bY c #3f3f3f",
"#8 c #404040",
"iF c #595959",
"cX c #404040",
"bV c #474747",
"gI c #4b4b4b",
"iD c #565656",
".X c #3f3f3f",
".D c #414141",
".t c #4a4a4a",
"iE c #535353",
"#G c #414141",
"dx c #464646",
"#3 c #434343",
"ir c #4d4d4d",
"aP c #434343",
"ff c #484848",
".p c #4a4a4a",
"h4 c #464646",
"eZ c #484848",
"e8 c #464646",
"i. c #474747",
".s c #484848",
".q c #464646",
"g. c #494949",
"hr c #4b4b4b",
"hl c #3d3d3d",
"hb c #3e3e3e",
".r c #454545",
"c# c #3a3a3a",
"gb c #3b3b3b",
"g2 c #3f3f3f",
"hU c #404040",
"ip c #464646",
"ii c #494949",
"hP c #4a4a4a",
"cp c #3b3b3b",
"d3 c #3a3a3a",
".P c #3d3d3d",
"#K c #393939",
"hf c #474747",
"#k c #3a3a3a",
"bN c #3f3f3f",
"fZ c #414141",
"b8 c #3d3d3d",
"et c #3f3f3f",
"hZ c #454545",
"hv c #464646",
"bQ c #383838",
"hz c #424242",
".E c #3a3a3a",
"hq c #3b3b3b",
"ih c #404040",
"hF c #434343",
"iq c #444444",
"gZ c #454545",
"ay c #383838",
"dc c #393939",
"hO c #3b3b3b",
"a6 c #3c3c3c",
"gC c #404040",
"h. c #424242",
"gF c #3a3a3a",
"cm c #3c3c3c",
"cU c #3e3e3e",
"f2 c #3a3a3a",
"#d c #3b3b3b",
"dN c #3d3d3d",
"fP c #3f3f3f",
"ia c #424242",
"gY c #000000",
"gv c #010101",
"g5 c #020101",
"g4 c #020202",
"g6 c #030202",
"gH c #030303",
"gM c #040404",
"g3 c #050505",
"gT c #060605",
"gA c #060606",
"gd c #070707",
"ge c #080808",
"gS c #080909",
"f3 c #090909",
"cL c #0a0a0a",
"gG c #0a0b0b",
"f6 c #0b0b0b",
"c5 c #0c0c0c",
"cM c #0d0d0d",
"c4 c #0e0e0e",
"dk c #0f0f0f",
"fs c #101010",
"fJ c #101011",
"dl c #111111",
"fX c #121211",
"dj c #121212",
"gi c #121313",
"fV c #131212",
"fT c #131213",
"ct c #131313",
"dW c #141414",
"dV c #151515",
"d6 c #161616",
"gU c #161617",
"gk c #161717",
"dE c #171717",
"gX c #171818",
"cs c #181818",
"fU c #181819",
"eg c #191919",
"gj c #19191a",
"c3 c #1a1a1a",
"dF c #1b1b1b",
"f8 c #1b1b1c",
"d7 c #1c1c1c",
"fv c #1c1c1d",
"dU c #1d1d1d",
"fw c #1d1d1e",
"f7 c #1d1e1e",
"c6 c #1e1e1e",
"fa c #1e1e1f",
"gN c #1e1f1f",
"ex c #1f1f1f",
"fW c #1f1f20",
"eL c #202020",
"di c #212121",
"fN c #212122",
"eK c #222222",
"fK c #222323",
"eR c #232323",
"fg c #232324",
"fD c #232424",
"d5 c #242424",
"fi c #242525",
"cK c #252525",
"gW c #252526",
"cu c #262626",
"fx c #262627",
"ey c #272727",
"e3 c #272728",
"cr c #282828",
"fk c #282829",
"ee c #292929",
"eA c #29292a",
"dR c #2a2a2a",
"fj c #2a2a2b",
"eH c #2a2b2b",
"eN c #2b2b2b",
"f# c #2b2c2c",
"ef c #2c2c2c",
"fu c #2c2d2e",
"c2 c #2d2d2d",
"dX c #2e2e2e",
"e2 c #2e2e2f",
"dT c #2f2f2f",
"fC c #2f2f31",
"eq c #303030",
"eU c #303031",
"cN c #313131",
"de c #323232",
"dm c #323233",
"dC c #333333",
"ez c #333334",
"dh c #343434",
"eh c #343435",
"dD c #353535",
"ea c #363636",
"d8 c #363637",
"cZ c #373737",
"eo c #373738",
"#2 c #383838",
"dG c #383839",
"gV c #38383a",
".Y c #393939",
"ep c #39393a",
".O c #3a3a3a",
"f. c #3a3a3b",
".F c #3b3b3b",
".N c #3c3c3c",
"d9 c #3c3c3d",
"dY c #3d3d3c",
".G c #3d3d3d",
"eJ c #3d3d3e",
"#F c #3e3e3e",
"c0 c #3e3e3f",
".H c #3f3f3f",
"eM c #3f3f40",
"e# c #3f4040",
".M c #404040",
"df c #404041",
"az c #414141",
"c1 c #414142",
".I c #424242",
"cJ c #424243",
"gs c #424344",
".L c #434343",
"fL c #434344",
"dJ c #434444",
"bA c #444444",
"cq c #444545",
".J c #454545",
"cv c #454546",
".K c #464646",
"fh c #464647",
".Z c #474747",
"ei c #474748",
"dg c #474848",
"#l c #484848",
"#c c #494949",
"eB c #49494a",
"bw c #4a4a4a",
"fM c #4a4a4b",
"#9 c #4b4b4b",
"dH c #4b4b4c",
"#E c #4c4c4c",
"#L c #4d4d4d",
"dI c #4d4d4e",
"bo c #4e4e4e",
"bx c #4f4f4f",
"eb c #4f4f50",
"be c #505050",
"ft c #505051",
".0 c #515151",
"fy c #515152",
"#1 c #525252",
"dS c #525253",
"#b c #535353",
"a5 c #545454",
"cl c #545455",
"bf c #555555",
"e. c #555656",
"#m c #565656",
"ck c #565657",
"bg c #575757",
"ej c #575758",
"bd c #585858",
"gO c #585859",
".1 c #595959",
"cw c #59595a",
"#a c #5a5a5a",
"cj c #5a5a5b",
"do c #5a5b5c",
"aA c #5b5b5b",
"bh c #5c5c5c",
"dp c #5c5c5d",
"d4 c #5d5d5c",
"by c #5d5d5d",
"gt c #5d5d5e",
".2 c #5e5e5e",
"gz c #5e5e5f",
"a. c #5f5f5f",
"aO c #606060",
"#n c #616161",
"## c #626262",
"dq c #626263",
"#0 c #636363",
"fS c #636364",
"aZ c #646464",
"at c #656565",
"aY c #666666",
"fY c #666667",
".3 c #676767",
"gl c #676768",
"#D c #686868",
"#. c #696969",
".4 c #6a6a6a",
"e0 c #6a6a6b",
".9 c #6b6b6b",
"dn c #6b6b6c",
"fr c #6c6c6c",
".5 c #6d6d6d",
"aX c #6e6e6e",
"eD c #6e6e6f",
"dr c #6e6f6f",
"#o c #6f6f6f",
"a# c #707070",
"c7 c #717171",
".8 c #727272",
"bc c #737373",
".6 c #747474",
"eO c #747575",
"hm c #757575",
"cT c #767676",
".7 c #777777",
"f9 c #777778",
"#C c #787878",
"ds c #787979",
"bp c #797979",
"#Z c #7a7a7a",
"bT c #7b7b7b",
"bI c #7c7c7c",
"aT c #7d7d7d",
"eT c #7e7e7e",
"cx c #7f7f7f",
"#p c #808080",
"fm c #808181",
"gu c #818181",
"aN c #828282",
"e4 c #828284",
"dd c #838383",
"#M c #848484",
"as c #858585",
"hE c #868686",
"fb c #868688",
"cO c #888888",
"fI c #888889",
"gc c #898989",
"cy c #898a8a",
"c8 c #8a8a8a",
"dt c #8b8b8b",
"gm c #8b8c8c",
"e1 c #8c8c8c",
"fO c #8c8c8d",
"bU c #8d8d8d",
"#B c #8e8e8e",
"cg c #8f8f8f",
"b7 c #909090",
"aB c #919191",
"dK c #919292",
"aa c #929292",
"bZ c #939393",
"er c #939394",
"b# c #949494",
"cb c #959595",
"#q c #969696",
"bL c #979797",
"bM c #989898",
"eV c #989899",
"fE c #999999",
"aW c #9a9a9a",
"el c #9a9b9b",
"#Y c #9b9b9b",
"eI c #9b9c9c",
"d. c #9c9c9c",
"cz c #9d9d9d",
"e5 c #9d9d9f",
"eW c #9e9e9e",
"fl c #9f9f9f",
"bn c #a0a0a0",
"cA c #a0a0a1",
"#A c #a1a1a1",
"fc c #a1a1a3",
"dB c #a2a2a2",
"a4 c #a3a3a3",
"cE c #a4a4a4",
"eS c #a5a5a5",
"fn c #a6a6a6",
"#r c #a7a7a7",
"bR c #a8a8a8",
"bm c #a9a9a9",
"a0 c #aaaaaa",
"cP c #ababab",
"e9 c #ababac",
"cB c #acacac",
"#z c #adadad",
"ar c #aeaeae",
"du c #aeaeaf",
"ca c #afafaf",
"bv c #b0b0b0",
"gR c #b1b1b1",
"aM c #b2b2b2",
"#s c #b3b3b3",
"cR c #b4b4b4",
"cS c #b5b5b5",
"cQ c #b6b6b6",
"dM c #b6b6b7",
"cY c #b7b7b7",
"#X c #b8b8b8",
"bF c #b9b9b9",
"i# c #bababa",
"ab c #bbbbbb",
"#y c #bcbcbc",
"gB c #bdbdbd",
"cD c #bdbebe",
"#t c #bebebe",
"#u c #bfbfbf",
"#N c #c0c0c0",
"cC c #c0c0c1",
"b0 c #c1c1c1",
"#x c #c2c2c2",
"gr c #c2c2c3",
"#v c #c3c3c3",
"b1 c #c4c4c4",
"#w c #c5c5c5",
"bq c #c6c6c6",
"b6 c #c7c7c7",
"gh c #c7c8c8",
"aq c #c8c8c8",
"#W c #c9c9c9",
"a3 c #cacaca",
"es c #cbcbcb",
"bz c #cccccc",
"#O c #cdcdcd",
"aL c #cecece",
"ac c #cfcfcf",
"ch c #d0d0d0",
"aU c #d1d1d1",
"#V c #d2d2d2",
"ap c #d3d3d3",
"#P c #d4d4d4",
"#U c #d5d5d5",
"bG c #d6d6d6",
"#Q c #d7d7d7",
"#R c #d8d8d8",
"#S c #d9d9d9",
"#T c #dadada",
"ad c #dbdbdb",
"ao c #dcdcdc",
"aK c #dddddd",
"ae c #dedede",
"ek c #dedfdf",
"an c #dfdfdf",
"aC c #e0e0e0",
"af c #e1e1e1",
"am c #e2e2e2",
"ba c #e3e3e3",
"ag c #e4e4e4",
"gy c #e4e4e5",
"a2 c #e5e5e5",
"ah c #e6e6e6",
"al c #e7e7e7",
"ai c #e8e8e8",
"aj c #e9e9e9",
"ak c #eaeaea",
"aV c #ebebeb",
"aI c #ececec",
"aD c #ededed",
"a1 c #eeeeee",
"aJ c #efefef",
"aH c #f0f0f0",
"ci c #f1f1f1",
"bu c #f2f2f2",
"aG c #f3f3f3",
"aE c #f4f4f4",
"aF c #f5f5f5",
"bH c #f6f6f6",
"eC c #f6f6f7",
"bS c #f7f7f7",
"bb c #f8f8f8",
"dZ c #f9f9f9",
"dv c #fafaf9",
"fB c #fafafa",
"f4 c #fafafb",
"f5 c #fbfbfb",
"c9 c #fcfcfc",
"gf c #fdfdfd",
"gg c #fefefd",
"dw c #fefefe",
"dL c #ffffff",
"QtQtQtQtQtQtQtQtQtQtQtQtQtQtQtQtQtQtQtQtQtQtQtQtQtQtQtQt.#.a.b.c.d.e.f.g.hQtQtQtQtQtQtQtQtQtQtQtQtQtQtQtQtQtQtQtQtQtQtQtQtQtQtQt",
"QtQtQtQtQtQtQtQtQtQtQtQtQtQtQtQtQtQtQtQtQtQtQt.i.j.k.l.m.n.o.p.q.r.s.t.u.v.w.x.y.zQtQtQtQtQtQtQtQtQtQtQtQtQtQtQtQtQtQtQtQtQtQtQt",
"QtQtQtQtQtQtQtQtQtQtQtQtQtQtQtQtQtQtQtQtQt.A.B.C.D.E.F.G.H.I.J.K.K.K.L.M.G.N.O.P.Q.R.S.TQtQtQtQtQtQtQtQtQtQtQtQtQtQtQtQtQtQtQtQt",
"QtQtQtQtQtQtQtQtQtQtQtQtQtQtQtQtQtQt.U.V.W.X.Y.G.Z.0.1.2.3.4.5.6.7.8.9#.###a#b#c.M.O#d#e#f#gQtQtQtQtQtQtQtQtQtQtQtQtQtQtQtQtQtQt",
"QtQtQtQtQtQtQtQtQtQtQtQtQtQtQtQt#h#i#j#k.F#l#m#n#o#p#q#r#s#t#u#v#w#x#t#y#z#A#B#C#D.1#E#F.Y#G#H#gQtQtQtQtQtQtQtQtQtQtQtQtQtQtQtQt",
"QtQtQtQtQtQtQtQtQtQtQtQtQtQtQt#I#J#K.F#L.2.5#M#r#N#O#P#Q#R#S#T#T#T#T#T#R#Q#U#V#W#X#Y#Z#0#1.M#2#3#4#5QtQtQtQtQtQtQtQtQtQtQtQtQtQt",
"QtQtQtQtQtQtQtQtQtQtQtQtQt#6#7#8.O#9a.a#aaabac#Q#Radaeafagahaiajakakalagamanao#S#Qapaqarasat.0.G.OauavQtQtQtQtQtQtQtQtQtQtQtQtQt",
"QtQtQtQtQtQtQtQtQtQtQtQtawaxayazaA.9aB#uap#RadaCahaDaEaFaGaHalajaganaIaEaEaEaJalamaK#R#UaLaMaNaO#c#2aPaQQtQtQtQtQtQtQtQtQtQtQtQt",
"QtQtQtQtQtQtQtQtQtQtQtaRaS.Y#L#0aT#saU#RaoamaVaFaG#R#XaWaXat.3#DaYaZ.4aYaNa0aqa1aFaHa2ae#R#Pa3a4#oa5.Fa6a7a8QtQtQtQtQtQtQtQtQtQt",
"QtQtQtQtQtQtQtQtQtQta9b..O#m.4b#a3#QadbaaDbbagaMbcbd#c#Lbe#1a5#bbf#m#mbgbga5.1#Daa#WaHaGa2aK#Q#VabaNbh.M.ObibjQtQtQtQtQtQtQtQtQt",
"QtQtQtQtQtQtQtQtQtbkbl.FaAaXbmap#Raeajbbahbna..K#9bo.0#1#ba5a5bf#mbgbd.1#aaAaA#abdbdbpbqaEaJam#SapaqaaaO.L#2brbsQtQtQtQtQtQtQtQt",
"QtQtQtQtQtQtQtQtbtb..FaA.6aM#U#SbaaHbubv.2.Kbwbobobx.0#1#1#1#ba5bf#mbgbd.1#abhbhby.2.1#mas#SaEalaK#Pbz#Y##bA#2bBbCQtQtQtQtQtQtQt",
"QtQtQtQtQtQtQtbDbE.OaAbcbFbGaoa2bHanbIbA#c#9#E#Lbobxbxbe#1.0#1#ba5bf#mbgbd.1#aaAbhbyby.2#a.2#sbbaVan#Uacbn##.L.FbJ#hQtQtQtQtQtQt",
"QtQtQtQtQtQt#6bK.Y#m.5bvbGadalbb#Vby.Ibwbw#9#9#E#Lbobxbebe.0#1#ba5bf#mbgbgbd#aaAaAaAaAbh.2byaAbLaDa1an#PaLbMa..GbNbOQtQtQtQtQtQt",
"QtQtQtQtQtQtbPbQ#L.4bR#PadahbS#ubfbA#c#c#cbw#9#E#Lbobxbebx.0#1#ba5a5a5bf#mbdbd.1.1.1#aaAbhby.2bfbTaVa1ae#PbzbUbd#2bVbWQtQtQtQtQt",
"QtQtQtQtQtbXbY.I#0bZaU#SagbHb0bx.L#l#l#l#cbw#9#9#E#Lbobxbxbe.0.0#1#ba5bf#mbgbgbdbd.1.1#aaAaAbh.2#b#Za1aIaKapb1#Zbo#2b2b3QtQtQtQt",
"QtQtQtQtb4b5.YbhbTb6#RamaF#Pbf.L.Z.Z.Z#l#c#cbw#9#E#Lbobobobxbe.0.0#1#ba5bf#m#mbgbgbgbd.1#a#aaAbhby#bb7aGal#TaU#saY.Ib8b9QtQtQtQt",
"QtQtQtQtc.c##E.9cabGanaJah#n.H.K.K.J.Z#l#l#c#cbw#9#E#L#E#Lbobxbebe.0#1#ba5a5a5a5a5bfbfbfbgbd.1#aaAaAbd#zbHbabGaLcbbg#2cccdQtQtQt",
"QtQtQtcecf.GaOcgchadajcias.G.LbA.L.J.I.M.H.K#l#c#cbwbw#c#9#E#E#Lbobxbe.0#bbfbd.1cjbd#aa.ckclbf#mbgbgbgbgaLcianap#x.7.KcmcnQtQtQt",
"QtQtQtcocpbea##y#QamaFab.M#F.M.Mazcqcrcsctcucv.J.K.K.Z.Z.Z#l#cbw#9#Ecw.9.6cxcyb#czcAcBcCcD#Xb7#.#1#1a5bxbTaJai#SchcE#a.OcFcGQtQt",
"QtQtcHcI.NaOb7#VadakaIaZ#2.N.G.N.HcJcKctcLcMcNbA.I.L.LbAbA.J.J.K.Zbo#0aXbTcOb#bncPcQb1#VafaIaGalcR.4#EbxbwcSaEaCapb1cTbAcUcVQtQt",
"QtQtcWcXbw.5cY#QafaFcBcZ.Y.O.O.Oc0c1c2c3c4c5c6cJ.H.Mazazaz.I.I.I.Ka5#n.3c7aTc8cb#A#zabb6apanakaEc9aVd.#m.JaZakaj#Racd.bf.Yd#daQt",
"QtQtdbdc.1dd#O#Tajaka.decZcZcZcZdfdgdhdidjdkdldm.H.N.N.G#F#F.H.M#cbfbh#0.4dndodpdqdrdsdtdubzagaIaGdvdw#P#a.HcQaGaeapbF#..GdxdyQt",
"QtdzdA.H#0dB#Panbu#u#2dedCdhdDdDdgbx.FcrdEdjdldFdG.O.O.O.F.N.Fc1dH#b#aaOatdI.N.N.G.G.G.MdJbydK#QaHaEbbdLdM.NbIaEa2bG#Was.ZdNdOQt",
"QtdPdQ#c#oab#RbabHbUdRcNcNdedededS#m.IdTdUdVdWdWdX.OcZcZ#2.Y.Ocq#cbe#mbybf.N.O.F.N.N.N.GdY.F.Fbyb6buaFdZdwaa.J#TaDadac#Aa5.Yd0d1",
"Qtd2d3#baTa3#Sajaka5dRdTdTdTdTdh#nd4#ccZd5csdEd6d7d8dhdDdDdhd9.L.Z#L#be.e#dDcZcZ#2#2.Y.Y.Y.Y.Yeaeb#WaFbHc9aVe.cBaFan#VcS##.Oeced",
"Qt.B#daAb7aUaoaHbzdDeeefc2c2ef.G#o#0be#Fc2dUc3egcscrehcNdedCc0#FbAbwbeeidhdhdhdhdhdDdDeaeaeacZcZdCejekaFbSdLel.7bbba#P#v.8#F.rem",
"Qten.H#na4#UanaFcEcKeedRdRdRcrbeaT#.bd.J.FdmdUd7dFc6eadXdXeoep.N.I#l#cdDdTeqeqcNcNcNcNdedCdCdCdCdCc2eraGaEc9bG#oaVaibGes#p.Leteu",
"evew.IaY#z#RambScgexeyeyeycrey.7c8#oa.bo.IezeAexc6dUeAeqc2.YdC.O.M.K.Fefc2c2dXdXdXdXdXdXdTdTdTeqdTefeBadaGbHeCeDadaD#RaLb7bw.GeE",
"eFeG.Z.5#y#QbabS#Md7d5cKcucKeHeI#qcTat#meJcuehcueKeLeLeqd8dCde#2#FeMefeedReedReNeNeNeNeNeNefefeNdRdReq#ycibudZeO#OaH#Tch#Ybo#2eP",
"eQ#e#c.5#t#RaiaC#0dFeKeReRex.Z#NeSeT.9.2dDdieAdecKd5eKeNeaefcNdDd9eUcKcucucueyeyeycrcrcrcrcrcrcreycrcueVaHa1aFcEb1aHadaUeW#b#2eX",
"eYeZbwc7#N#SakaL#LdFeLeLeLdFe0aocQe1bcbycrdidie2dTeycud5eyeNcNdDeaeReRd5eReee3d5d5d5cKcKcKcKd5d5cKcKeLe4aIaVake5acaJaoaU#rbg.Ye6",
"e7e8bw.6b0#Rak#V.0egc6c6dUd7e9ahbqeWbIbdexexc6didCefeeeyeyeNeqeacueLdidieLf.f#exdieKeKeKeKeKeKdieKeKfafbalalakfcadaHaKaUcPbg.Yfd",
"feffbw#o#t#Raiba#0dWdFdFc3fgchaDapbvc8fhegdUdUd7fieac2efdRdRcNc2d7dUc6dUfj#Efkd7c6c6c6exexc6dUc6exc6eKflaCbaaDfm#VbuaoaUfnbg#2fo",
"fpfq.Zfr#t#QagbHbIfsegegdWftaGaJaKb0bMdCd6c3c3c3egfucZeqdXc2defvc3c3dFfw.I#Lfxc3d7d7dFdFd7d7dFd7d7egc2cS#Ranbafy#Vci#TcheW.0.Yfz",
"fAeGbA.9abbGamfBb#dld6dEfsdsdLbua2aUbLeLd6cscscscsc3eodDdCdDd5dEcscsdEfC#9#9fDdEegegegegegegegegegdWby#wchadesbwaeaD#SchfE#E.OfF",
"fGfH.MatcPbGaCbH#tegdjdVdV#vdLbHaVaefIfJdWdVdVdVdVdWfK#F.NdTdVd6d6d6c6fL#cfMfNdWd6d6d6d6d6dVd6d6dWfgbM#uaq#TfO#1aEaj#Q#O#B.KfPfQ",
"QtfR.G.2dB#Paeciafeec4djfwaKdLdZbualfSc5ctctctctctctfTefdCfUfVctctdVcZcv#cbwfWdjdWdWdWdWctdWdWfXdFfYbRcR#ves.Ibcdwag#Ua3eT.MfZf0",
"Qtf1f2bgcgchadaVaH#9cLf3a5f4dwf5bSaj.Gf6dldldldldldldlfsfsdldldlfsfW.LbA#l#cf7fsdjdjdldldlfsc4f8a.bUd.cPb0f9cMa0dZaf#V#x#o.Fg.g#",
"QtgagbbxbTaq#Rahf5gcgdgedtdLgfgfggghgigdcLcLc5dkdkdkdkdkdkdkdkdkc4dicqbA.Z#cgjf6cMcMcMcMcMgkezglfmasaB#rgmegeKanaHaKchaMby.Ygngo",
"QtgpgqbA.9#X#UambH#Oc3f6#PdLdwgfdLgrdf#F.F.Ycrc5cMcMcMcMcMcMcMcMc5eL.JbA#lbwefeKd5eyeedCgsgtbc#ZaTgubUbpeKgv#0fBal#S#Oczbo.YgwQt",
"Qtb4gx.F.2czapaKaIdZbdgjgydLdLdwgfbbcia2bG#vfne3gdf6f6f6f6f6f6f6cLex.Z.K#c#L.0#m.1.2#n.3.9#obccTaTgugzdFgAc5gBdZam#PaqeT.MgCgDQt",
"QtQtgEgF.0cx#W#Qa2f5#zaOgfdLdLdLdwgff5aFak#SaLaNgGgecLcLf3f3f3f3gef7bw.Kbw#L.0a5.1bh#naZ#D.5.8#C#.eJc5gAgH.KaFaIaochcQ###2gIgJQt",
"QtQtgKgL.I#DaM#Paea1aDcSdLdLdLdLdLdLdLdLf5aJamaUbggMgegegegdgegegdgNbfbxbo.0a5bgaAa.#0aY#.aYgO.FdVgMgAgAgdcaf5babG#ObL#9.FgPQtQt",
"QtQtQtgQ.Ybdc8aL#RahbHaF#vcRcQcQcQcScScRgRcPa4czbcgSgTgAgAgAgAgAgAgU#l.L.N.N.N.Haz.MgVeogWgXcLgHgMgAgAgY#mdZaDaKac#N.5.NgZg0QtQt",
"QtQtQtg1g2.J.9cYapaeaDf5bcgYgYgYgYgYgYgYgYgYgYgYgYg3g3g3g3g3g3g3g3gMg4g4g4g4g4g4gvgvg5gvg4g6gMg3g3g3gvc6#UbSba#U#Oczbx.Yg7g8QtQt",
"QtQtQtb4g9.Y#mc8bz#QbaaGa1bAgYgMgMgMgMgMgHgMgMgMgMgMgMgHgMgMgMgMgMgMgMgMgMgMgMgMgMgMgMgMgMgMgMgMgMg4g3fldLaiadch#taX.Nh.h#QtQtQt",
"QtQtQtQthahb.IaYcP#Vadaif5#VeKgYgHgHgHgHgHgHgHgHgHgHgHgHgHgHgHgHgHgHgHgHgHgHgHgHgHgHgHgHgHgHgHgHgvgY.8c9aJanapesaB#E#2hchdQtQtQt",
"QtQtQtQt#hhe.Ybe#C#v#PaeaVdw#vdFgYg4g4g4g4g4g4g4g4g4g4g4g4g4g4g4g4g4g4g4g4g4g4g4gvg4g4g4g4g4g4gYgY##aEbuambGaLar.2.YhfhgQtQtQtQt",
"QtQtQtQtQthhhi.O#ae1#O#UafaIdL#udUgYgvgvgvgvgvgvgvgvgvgvgvgvgvgvgvgvgvgvgvgvgvgYgvgvgvgvgvgvgYgY#0ciaFag#Sac#u.8.M.Nhjb4QtQtQtQt",
"QtQtQtQtQtQthkhl.MaOeWaL#QafaDdL#WcZgYgYgYgYgYgYgYgYgYgYgYgYgYgYgYgYgYgYgYgYgYgYgYgYgYgYgYgYcLhmaGaFag#Tchb1dd#c#2hnhoQtQtQtQtQt",
"QtQtQtQtQtQt#hhphq.KaY#racbGaCaVc9a2#ngegYgYgYgYgYgYgYgYgYgYgYgYgYgYgYgYgYgYgYgYgYgYgYgYgYcKdBfBbua2#Tchb6bUbecZhrhsQtQtQtQtQtQt",
"QtQtQtQtQtQtQththu.Y#9.4aracbGanajbbdZflcrgYgYgYgYgYgYgYgYgYgYgYgYgYgYgYgYgYgYgYgYgYgYcLaA#PdLaJba#Tchb6cb#b#2hvhwQtQtQtQtQtQtQt",
"QtQtQtQtQtQtQtQthxhycZbw.4#raL#Paea2aHdLafeTeRgYgYgYgYgYgYgYgYgYgYgYgYgYgYgYgYgYgYf6#lgRdZbbajaC#Qacb1cg#b#2hzhAhBQtQtQtQtQtQtQt",
"QtQtQtQtQtQtQtQtQthChDcZbwatfles#V#SamakbHdLafe1azfsgYgYgYgYgYgYgYgYgYgYgYgYg3eK##abbSc9a1agaK#P#O#uhE.0#2hFhGhHQtQtQtQtQtQtQtQt",
"QtQtQtQtQtQtQtQtQtQthIhJcZbA.2dtb0ac#UaKagakaFdwaE#WbLbh.YeKcscMf6dWexefbwbTbvaCgffBa1ahan#RchesaMcT#9cZgZhKhLQtQtQtQtQtQtQtQtQt",
"QtQtQtQtQtQtQtQtQtQtQthMhNhO.Ga5hmbma3aUbGaKamajaJbbdwc9bSaI#T#w#xapahaHfBdwf5buakagan#S#V#Ob0fE#0.I#2hPhQhRQtQtQtQtQtQtQtQtQtQt",
"QtQtQtQtQtQtQtQtQtQtQtQthShThUcZ#la.cOcQesaU#U#Tanbaalaka1buaFbbbbbHaGaHaIaiagafao#Q#VaL#w#rcTbx.O.FhVhWQtQtQtQtQtQtQtQtQtQtQtQt",
"QtQtQtQtQtQtQtQtQtQtQtQtQtQthXhY.O.F#E#0cObvbqaLaU#P#QadaoanaCaCaCaCanaKad#S#U#Vaces#ua4.7bf.HcZhZh0h1QtQtQtQtQtQtQtQtQtQtQtQtQt",
"QtQtQtQtQtQtQtQtQtQtQtQtQtQtQth2h3h4#2.O#cby#CaWcRb1bzacch#Vapapap#V#VchchaL#W#tcBbUfrbe#FcZ.Mh5h6h7QtQtQtQtQtQtQtQtQtQtQtQtQtQt",
"QtQtQtQtQtQtQtQtQtQtQtQtQtQtQtQtQth8h9i..F.Y.IbxaObccObMfnca#s#Xi#cSgRarbnb#cx#.bf.J.F.YiaibicidQtQtQtQtQtQtQtQtQtQtQtQtQtQtQtQt",
"QtQtQtQtQtQtQtQtQtQtQtQtQtQtQtQtQtQtQtieifigih.O#2.F.Ibw#1bgbh#0at#n.1a5bobA.G#2#2#FiiijikhMQtQtQtQtQtQtQtQtQtQtQtQtQtQtQtQtQtQt",
"QtQtQtQtQtQtQtQtQtQtQtQtQtQtQtQtQtQtQtQtQtiliminioip.H.N.O#2#2#2#2#2cZ.Y.N.HiqirisitiuivQtQtQtQtQtQtQtQtQtQtQtQtQtQtQtQtQtQtQtQt",
"QtQtQtQtQtQtQtQtQtQtQtQtQtQtQtQtQtQtQtQtQtQtQtQtiwixiyiziAiBiCiDiEiFiGiHiIiJiKiLiMQtQtQtQtQtQtQtQtQtQtQtQtQtQtQtQtQtQtQtQtQtQtQt"};
